<svg xmlns="http://www.w3.org/2000/svg" version="1.1" xmlns:xlink="http://www.w3.org/1999/xlink" width="2000" height="339" viewBox="0 0 2000 339"><svg xml:space="preserve" width="2000" height="339" data-version="2" data-id="lg_fzs3y0KGy99aewaXKf" viewBox="0 0 685 116" x="0" y="0">
    <g clip-path="url(#a)" transform="matrix(.3694 0 0 .3694 135.488 74.43)">
        <clipPath id="a">
            <rect width="1376" height="768" x="-688" y="-384" rx="0" ry="0" transform="matrix(1 0 0 1 -50.94 77.03)"></rect>
        </clipPath>
        <path fill="#111111" d="M-111.94-102.97c30.829-.32 61.657-.566 92.486-.714l10.938-.054 2.199-.011c11.728-.061 23.454-.171 35.18-.3a4227.35 4227.35 0 0 1 36.142-.237c6.76-.018 13.52-.06 20.28-.163a1050.02 1050.02 0 0 1 19.116-.104c2.33-.003 4.662-.031 6.99-.085 19.396-.427 19.396-.427 27.46 6.612a104.098 104.098 0 0 1 6.858 7.477c1.663 1.945 3.5 3.584 5.476 5.205 7.147 6.166 14 12.674 20.883 19.133l2.057 1.93c1.367 1.285 2.732 2.573 4.095 3.862 3.058 2.886 6.129 5.73 9.336 8.45l1.584 1.36a367.054 367.054 0 0 0 4.174 3.492c1.746 2.148 1.746 2.148 1.527 4.343-.942 3.385-2.188 6.598-3.527 9.84l-.857 2.106a2090 2090 0 0 1-2.835 6.92l-1.996 4.893a8958.14 8958.14 0 0 1-5.417 13.24c-1.971 4.813-3.937 9.628-5.903 14.443-2.33 5.7-4.658 11.399-6.99 17.098l-1.09 2.666c-.708 1.725-1.418 3.449-2.131 5.172-1.692 4.096-3.338 8.198-4.888 12.35l-.904 2.358a181.748 181.748 0 0 0-1.605 4.358c-2.374 6.12-5.717 7.983-11.508 10.642l-2.052.746c-4.902 1.874-9.656 4.009-14.431 6.185-3.664 1.665-7.34 3.303-11.018 4.936a2968.14 2968.14 0 0 0-19.352 8.704l-2.805 1.27c-3.708 1.682-7.415 3.364-11.121 5.047a10989 10989 0 0 1-7.816 3.546l-2.286 1.04a269.194 269.194 0 0 1-4.536 2.006c-2.747 1.21-2.747 1.21-5.406 2.744-11.515 5.917-22.967 5.3-35.662 5.176a2989.83 2989.83 0 0 0-7.336.003c-5.24 0-10.48-.016-15.718-.05-7.575-.05-15.15-.064-22.724-.072a10303.5 10303.5 0 0 1-36.88-.11 14239.08 14239.08 0 0 0-35.8-.122l-2.233-.005-11.094-.023c-30.62-.062-61.24-.168-91.86-.302 1.267-3.183 2.536-6.366 3.806-9.548l1.077-2.707c2.948-7.383 6.076-14.667 9.305-21.933a4044.87 4044.87 0 0 0 3.632-8.253l.98-2.231c4.656-10.622 9.202-21.291 13.762-31.953l5.395-12.602 1.312-3.065c3.538-8.261 7.08-16.52 10.644-24.77a1854.51 1854.51 0 0 0 1.657-3.845c.74-1.72 1.483-3.438 2.227-5.155l1.229-2.848c.974-2.09.974-2.09 1.974-3.09 2.952-.095 5.88-.126 8.834-.114h2.809c3.078 0 6.157.009 9.236.016l6.385.005c5.615.003 11.229.013 16.843.024 5.724.01 11.448.015 17.172.02 11.24.01 22.48.028 33.72.049-6.404 18.287-6.404 18.287-9.577 26.395L-53.42.745c-.613 1.577-1.228 3.154-1.844 4.73-.943 2.41-1.88 4.824-2.817 7.238l-1.812 4.65-.84 2.162a474.913 474.913 0 0 1-2.207 5.506l-.841 2.296c-1.761 2.588-3.928 3.347-6.757 4.63l-3.631 1.67c-1.277.572-2.555 1.145-3.833 1.716a3433.95 3433.95 0 0 1-3.471 1.588 1468.05 1468.05 0 0 1-7.775 3.528c-7.607 3.433-15.202 6.892-22.8 10.346l-4.636 2.108-11.256 5.118c19.752.377 39.503.657 59.258.829 9.177.082 18.35.193 27.527.378 8.015.162 16.03.263 24.047.298 4.23.02 8.454.068 12.683.187 24.266.656 41.857-3.952 63.083-15.815 3.788-2.09 7.645-3.977 11.564-5.805C73.14 36.4 73.94 34.43 74.95 31.28l1.189-3.48 1.17-3.77c.439-1.315.883-2.63 1.33-3.941a879.09 879.09 0 0 0 2.127-6.3c2.684-8.055 5.712-15.977 8.745-23.907a2508.51 2508.51 0 0 0 2.69-7.073l.856-2.26 1.655-4.372a510.05 510.05 0 0 1 3.87-9.947c.46-1.148.919-2.295 1.39-3.477l1.226-3.004c1.113-3.038 1.113-3.038.86-7.72l-236-1c3.377-10.128 3.377-10.128 5.165-14.39.4-.96.802-1.918 1.215-2.906l1.246-2.953 1.176-2.812c2.924-6.974 5.903-13.925 8.884-20.875l1.26-2.94z"></path>
    </g>
    <g clip-path="url(#b)" transform="matrix(.3694 0 0 .3694 68.451 58)">
        <clipPath id="b">
            <rect width="1376" height="768" x="-688" y="-384" rx="0" ry="0" transform="matrix(1 0 0 1 130.5 121.5)"></rect>
        </clipPath>
        <path fill="#111111" d="M-65.5-154.5h233c-2.666 2.666-4.784 4.7-7.766 6.812l-2.172 1.551-2.312 1.637c-5.97 4.266-11.897 8.575-17.75 13-7.779 5.872-15.612 11.69-23.629 17.234-2.407 1.713-2.407 1.713-4.459 3.794-9.039 8.11-18.787 7.09-30.33 6.972-2.069.008-4.139.019-6.208.033-5.414.028-10.827.009-16.241-.02-5.537-.022-11.074.002-16.612.022-10.84.033-21.68.015-32.521-.035a5716.199 5716.199 0 0 0-4.246 9.84l-1.198 2.767a433.078 433.078 0 0 0-7.618 18.955l-.901 2.381C-7.772-65.977-8.5-63.353-8.5-59.5l59 1c-5.593 13.05-11.194 26.094-16.865 39.11a5915.81 5915.81 0 0 0-2.51 5.773l-1.461 3.356C28.453-7.488 28.453-7.488 27.5-4.5h-63c-1.98 5.92-1.98 5.92-3.916 11.854-.845 2.625-1.744 5.228-2.646 7.834l-.862 2.759c-2.68 7.547-6.515 10.146-13.576 13.553-1.838.962-3.673 1.927-5.508 2.895a606.722 606.722 0 0 1-8.457 4.341c-6.8 3.581-11.314 7.73-16.035 13.764l-1.378 1.712a229.567 229.567 0 0 0-3.434 4.476l-2.555 3.359-1.308 1.721a772.336 772.336 0 0 1-6.763 8.67l-1.385 1.76-2.786 3.536c-2.3 2.92-4.595 5.843-6.891 8.766l-2.75 3.5-1.375 1.75-16.499 20.999-2.758 3.51a7981.97 7981.97 0 0 1-8.093 10.291l-2.669 3.39a1211.831 1211.831 0 0 0-8.09 10.408l-1.925 2.495a1500.24 1500.24 0 0 0-3.747 4.881l-1.723 2.233-1.533 1.999c-1.338 1.544-1.338 1.544-3.338 2.544 2.156-8.475 4.838-16.748 7.632-25.028 1.066-3.16 2.125-6.321 3.184-9.483l1.672-4.986a4712.994 4712.994 0 0 0 7.961-24c11.367-34.472 22.862-68.844 35.68-102.81a818.337 818.337 0 0 0 6.461-17.849l1.666-4.726a645.458 645.458 0 0 0 2.272-6.529c.65-1.905 1.32-3.804 1.992-5.702l1.096-3.181c2.678-5.237 7.162-7.269 12.392-9.511L-82-60.824l3.625-1.551c3.536-1.519 7.058-3.049 10.553-4.659C-64.5-68.5-64.5-68.5-61.506-69.409c5.427-2.005 8.006-4.643 10.469-9.794 2.127-4.963 3.944-10.019 5.685-15.128a509.183 509.183 0 0 1 3.434-9.671c.731-2.052 1.459-4.104 2.184-6.158l1.038-2.914.924-2.731.821-2.388c.546-2.794.295-4.595-.549-7.307-1.143-1.705-1.143-1.705-2.684-3.122l-1.698-1.688-1.841-1.768-1.879-1.855a1089.957 1089.957 0 0 0-5.96-5.817 3002.755 3002.755 0 0 1-5.972-5.86 797.946 797.946 0 0 0-3.723-3.636A278.99 278.99 0 0 1-65.5-153.5z"></path>
    </g>
    <g clip-path="url(#c)" transform="matrix(.3694 0 0 .3694 37.967 19.02)">
        <clipPath id="c">
            <rect width="1376" height="768" x="-688" y="-384" rx="0" ry="0" transform="matrix(1 0 0 1 213.009 227)"></rect>
        </clipPath>
        <path fill="#111111" d="M1.009-44c4.115 1.647 6.99 4.597 10.113 7.637l1.739 1.69a929.221 929.221 0 0 1 3.613 3.548 350.975 350.975 0 0 0 3.722 3.598 413.138 413.138 0 0 1 5.364 5.226c.56.527 1.122 1.053 1.7 1.595 2.753 2.784 3.752 4.161 3.73 8.133A252.759 252.759 0 0 1 25.52 4.87a173.51 173.51 0 0 0-1.458 4.39c-3.834 12.052-3.834 12.052-8.753 15.795-3.377 1.57-6.772 2.755-10.3 3.945-2.906 1.231-5.768 2.554-8.637 3.867-1.497.667-2.995 1.331-4.494 1.992a3814.32 3814.32 0 0 0-9.242 4.102l-4.451 1.969-2.1.937C-28.762 44-28.762 44-30.99 44c1.3-6.402 3.062-12.374 5.312-18.5a273.523 273.523 0 0 0 6.012-18.418c2.568-8.865 5.383-17.635 8.333-26.38a646.9 646.9 0 0 0 1.686-5.099 765.758 765.758 0 0 1 2.5-7.498l.737-2.294c1.595-4.618 3.175-7.058 7.42-9.811"></path>
    </g>
    <g clip-path="url(#d)" transform="matrix(.3694 0 0 .3694 37.177 89.96)">
        <clipPath id="d">
            <rect width="1376" height="768" x="-688" y="-384" rx="0" ry="0" transform="matrix(1 0 0 1 215.147 35)"></rect>
        </clipPath>
        <path fill="#111111" d="M30.147-37c1.332 2.664.527 4.073-.359 6.799l-.676 1.974-.696 2.048C23.221-11.178 19.156.371 5.147 9A233.729 233.729 0 0 0-.04 13.188l-2.39 1.89a638.05 638.05 0 0 0-7.86 6.36l-2.75 2.25a1157.87 1157.87 0 0 0-5.812 4.812l-2.938 2.438-2.652 2.214c-2.106 1.615-4.034 2.711-6.41 3.848a983.142 983.142 0 0 1 14.688-22.562l4.218-6.313L-9.857 5c1.85-2.768 3.694-5.539 5.535-8.312l1.626-2.448c.984-1.48 1.967-2.961 2.95-4.443a551.71 551.71 0 0 1 2.642-3.939c.828-1.229 1.638-2.47 2.43-3.722 3.07-4.669 6.536-7.4 11.26-10.324l1.946-1.248a552.115 552.115 0 0 1 3.794-2.409c2.638-1.673 5.23-3.412 7.821-5.155"></path>
    </g>
    <g clip-path="url(#e)" transform="matrix(.3828 0 0 .3828 405.883 57.843)">
        <clipPath id="e">
            <rect width="1376" height="768" x="-688" y="-384" rx="0" ry="0" transform="matrix(1 0 0 1 129.917 -119.91)"></rect>
        </clipPath>
        <path fill="#111111" d="M-12.798-38.308a1317.295 1317.295 0 0 1 12.485.007c3.576.017 7.15.007 10.727-.011 2.783-.011 5.565-.007 8.347 0 1.95.003 3.902-.006 5.852-.015 9.607.076 17.842 1.249 25.83 6.843 4.299 4.593 4.964 9.525 4.849 15.574l-.024 2.326c-.153 6.48-.821 12.875-1.663 19.299l-.356 2.762c-1.31 9.087-3.664 18.037-11.27 23.863-9.833 5.619-20.756 6.06-31.855 5.98l-3.247-.001c-2.244-.003-4.49-.011-6.733-.023-3.416-.02-6.832-.021-10.248-.02-2.195-.005-4.39-.011-6.584-.018l-3.06-.003c-21.672-.144-21.672-.144-29.23-6.845-6.545-7.421-6.691-13.645-6.105-23.32 2.099-29.523 2.099-29.523 10.78-38.93 8.783-7.522 20.54-7.521 31.505-7.468"></path>
    </g>
    <g clip-path="url(#f)" transform="matrix(.3828 0 0 .3828 659.301 57.9)">
        <clipPath id="f">
            <rect width="1376" height="768" x="-688" y="-384" rx="0" ry="0" transform="matrix(1 0 0 1 -532 -120.058)"></rect>
        </clipPath>
        <path fill="#111111" d="M-42-38.058h92l-1 17h-71l-1 10-1 3h66c-1 14-1 14-2 15-2.02.094-4.05.117-6.08.114l-3.94-.001-4.3-.015-4.36-.005c-3.84-.003-7.68-.013-11.52-.024C5.89 7 1.97 6.996-1.94 6.99c-7.69-.01-15.37-.03-23.06-.05l-1 13h71c-1 17-1 17-2 18-2.89.096-5.76.127-8.65.115H31.6c-3.01-.001-6.03-.01-9.04-.016l-6.25-.005c-5.5-.003-10.99-.013-16.49-.024-5.6-.011-11.21-.015-16.81-.02-11-.011-22.01-.028-33.01-.05.53-9.696 1.13-19.364 2.12-29.026.11-1.04.21-2.08.32-3.151l.66-6.49c.34-3.288.67-6.576 1-9.865.21-2.123.43-4.246.65-6.37.09-.966.19-1.933.29-2.93.09-.925.19-1.85.29-2.803.08-.797.16-1.594.25-2.416.62-4.346 1.56-8.642 2.42-12.948"></path>
    </g>
    <g clip-path="url(#g)" transform="matrix(.3828 0 0 .3828 342.105 57.726)">
        <clipPath id="g">
            <rect width="1376" height="768" x="-688" y="-384" rx="0" ry="0" transform="matrix(1 0 0 1 296.5 -119.606)"></rect>
        </clipPath>
        <path fill="#111111" d="m-5.777-38.8 5.14.007c4.483.008 8.966.027 13.449.05 4.586.02 9.171.03 13.756.04 8.978.021 17.955.055 26.932.097-2.412 6.362-5.093 12.178-10 17-4.944 1.661-9.743 1.498-14.895 1.32a564.506 564.506 0 0 0-4.316.002c-3.767.002-7.529-.066-11.295-.15-4.585-.092-9.17-.107-13.756-.127a693.104 693.104 0 0 1-10.693-.116l-3.865-.057-3.405-.07c-2.989-.016-2.989-.016-5.775 2.198-.471 2.743-.178 5.196 0 8 1.647 1.647 3.567 1.15 5.836 1.174l3.127.04 3.412.032 7.113.1c3.748.047 7.496.091 11.244.131 3.61.04 7.22.091 10.83.144 1.11.01 2.22.017 3.363.026 9.75.153 19.426.793 26.716 7.943 3.027 3.744 3.058 7.05 2.859 11.722l-.06 2.281c-.294 7.213-1.037 13.402-6.315 18.72-10.63 7.68-23.416 7.234-35.895 7.078-1.775-.008-3.55-.014-5.325-.018-4.628-.015-9.255-.054-13.883-.098-4.739-.042-9.479-.06-14.219-.08-9.268-.042-18.535-.11-27.803-.195l.801-1.584a143.807 143.807 0 0 0 2.614-5.6c4.631-9.11 4.631-9.11 9.827-10.987 3.979-.397 7.85-.398 11.836-.247 1.459.007 2.918.008 4.376.003 3.822.002 7.637.08 11.457.175 4.646.104 9.293.123 13.939.15 3.614.02 7.226.056 10.839.136l3.925.067 3.453.078c2.91-.19 4.537-.562 6.933-2.19.696-1.955.696-1.955.75-4.126l.25-3.875c-3.276-2.184-4.262-2.257-8.063-2.287l-3.127-.04c-1.115-.006-2.231-.01-3.38-.017l-3.488-.044a2552.03 2552.03 0 0 0-11.067-.112c-4.836-.04-9.672-.095-14.508-.156l-3.344-.016c-16.199-.207-16.199-.207-22.461-5.14l-1.933-1.458c-4.421-4.697-3.986-10.349-3.883-16.433.511-6.639 2.319-12.628 7.254-17.297 10.609-6.896 22.585-6.273 34.723-6.195"></path>
    </g>
    <g clip-path="url(#h)" transform="matrix(.3828 0 0 .3828 550.644 58.042)">
        <clipPath id="h">
            <rect width="1376" height="768" x="-688" y="-384" rx="0" ry="0" transform="matrix(1 0 0 1 -248.192 -120.432)"></rect>
        </clipPath>
        <path fill="#111111" d="M-46.192-38.432c10.667-.07 21.333-.123 31.999-.155 4.954-.016 9.907-.037 14.86-.07 4.786-.034 9.57-.052 14.356-.06 1.82-.005 3.642-.016 5.462-.032a855.28 855.28 0 0 1 7.682-.024c.744-.01 1.488-.02 2.254-.032 7.584.044 14.9 1.887 20.387 7.373 4.206 6.933 1.912 16.542.813 24.188l-.307 2.576c-.862 6.037-2.532 9.586-6.506 14.236-6.408 4.227-13.56 3.28-21 3v2l1.586.68c3.289 1.8 6.123 4.11 9.039 6.445l1.86 1.48c1.245.991 2.489 1.984 3.732 2.978a524.728 524.728 0 0 0 4.924 3.851l2.734 2.128 2.43 1.88 1.695 1.558v2c-24.851 2.004-24.851 2.004-32.022-3.274a106.118 106.118 0 0 1-6.335-6.088c-2.947-2.939-6.258-5.434-9.518-8.013a1385.26 1385.26 0 0 1-3.996-3.262 1352.308 1352.308 0 0 0-8.664-7.008l-2.233-1.797a1557.526 1557.526 0 0 0-4.268-3.42C-20.08.792-20.08.792-21.192-1.433l1.764-.018c6.05-.064 12.1-.148 18.152-.244 2.259-.034 4.518-.062 6.777-.084 3.245-.034 6.489-.086 9.733-.142l3.068-.02 2.85-.06 2.51-.033c2.657-.494 3.519-1.275 5.146-3.399 1.295-3.883 1.132-6.907 1-11-1.692-1.692-3.843-1.168-6.162-1.205l-3.337-.06-3.63-.05-3.695-.064c-3.913-.066-7.825-.125-11.738-.183l-7.936-.13c-6.5-.109-13.001-.21-19.502-.308l-.186 3.254-.255 4.308-.121 2.135A157.503 157.503 0 0 1-28.13 4.568c-1.156 8.018-1.772 16.063-2.365 24.141l-.233 3.04-.2 2.74c-.265 2.08-.265 2.08-1.265 3.08a76.443 76.443 0 0 1-4.691.097l-2.862-.01-3.01-.026-3.021-.013c-2.472-.012-4.944-.028-7.416-.049-.251-8.54.534-16.95 1.375-25.438l.416-4.302c.396-4.087.802-8.174 1.209-12.26l.306-3.095c.788-7.914 1.669-15.803 2.727-23.686l.282-2.107z"></path>
    </g>
    <g clip-path="url(#i)" transform="matrix(.3828 0 0 .3828 503.17 57.804)">
        <clipPath id="i">
            <rect width="1376" height="768" x="-688" y="-384" rx="0" ry="0" transform="matrix(1 0 0 1 -124.193 -119.808)"></rect>
        </clipPath>
        <path fill="#111111" d="M-51.193-37.808c11.284-.093 22.567-.164 33.851-.207 5.241-.021 10.481-.05 15.722-.095 5.063-.043 10.127-.067 15.191-.078 1.926-.007 3.851-.021 5.776-.043 23.356-.253 23.356-.253 30.467 6.26 6.667 7.36 5.44 15.742 4.993 25.163-.302 4.345-.718 8.67-1.188 13-.1 1.037-.2 2.074-.305 3.143-1.024 8.6-3.374 16.494-10.132 22.294-8.363 5.607-19.299 6.727-29.125 6.677H11.78c-2.467-.001-4.934-.008-7.402-.016l-5.153-.005c-4.508-.003-9.016-.013-13.523-.024-4.605-.011-9.21-.015-13.816-.02-9.026-.011-18.052-.028-27.078-.05 1.01-16.87 1.01-16.87 1.754-24.124l.4-3.945.408-3.93a8061.758 8061.758 0 0 1 1.438-14h22c0 10.125 0 10.125-.438 13.816l-.273 2.373-.289 2.373-.289 2.479a1489.07 1489.07 0 0 1-.71 5.959 2825.29 2825.29 0 0 0 23.65-.153c2.682-.026 5.364-.04 8.046-.043 3.856-.01 7.71-.05 11.565-.097l3.633.012c6.573-.063 6.573-.063 12.33-2.931 1.843-2.895 2.545-4.71 2.92-8.097l.361-3.013.306-3.116.366-3.103c1.566-8.368 1.566-8.368-.312-16.09-2.68-1.967-4.682-1.748-7.986-1.754l-3.824-.03c-.674 0-1.348.003-2.042.004-2.115.005-4.23-.01-6.345-.028-4.494-.037-8.987-.051-13.48-.061a2384.76 2384.76 0 0 1-15.597-.08c-2.077-.014-4.154-.01-6.23-.005l-3.853-.03-3.378-.006c-5.16-.624-9.11-2.93-12.756-6.567l-1.664-1.605c-1.61-2.076-2.667-3.996-3.818-6.345l-1.078-2.19z"></path>
    </g>
    <g clip-path="url(#j)" transform="matrix(.3828 0 0 .3828 454.478 58)">
        <clipPath id="j">
            <rect width="1376" height="768" x="-688" y="-384" rx="0" ry="0" transform="matrix(1 0 0 1 2.989 -120.32)"></rect>
        </clipPath>
        <path fill="#111111" d="M-49.011-38.32c23.73-2.073 23.73-2.073 30.023 2.108 2.768 2.383 5.06 5.147 7.346 7.986 3.184 3.72 6.9 6.915 10.506 10.218 4.021 3.758 8.005 7.543 11.883 11.45 2.336 2.351 4.708 4.596 7.242 6.737 3.357 2.887 6.482 5.931 9.555 9.117 1.416 1.492 1.416 1.492 3.445 2.383l.113-2.812c.723-15.776 2.354-31.475 3.887-47.188h21c.11 7.578-.175 14.76-1.25 22.25-1.579 11.725-2.778 23.477-3.938 35.25l-.273 2.774c-.517 5.241-1.03 10.483-1.539 15.726-22.023 2.084-22.023 2.084-27.984-2.426-3.046-2.896-5.504-6.215-8.016-9.574-1.932-1.854-1.932-1.854-3.875-3.375-4.59-3.899-8.748-8.223-12.981-12.5-3.63-3.654-7.328-7.14-11.265-10.465-3.155-2.788-6.062-5.823-8.996-8.84-1.761-1.884-1.761-1.884-3.883-2.82v-2h-2l.055 3.56c-.002 3.898-.383 7.637-.93 11.503-1.435 10.606-2.253 21.272-3.125 31.937-9.631 4.353-9.631 4.353-13.812 5.75l-2.145.734c-2.043.516-2.043.516-6.043.516.372-17.069 2.249-33.849 4.274-50.78 1.076-9.057 1.924-18.135 2.726-27.22"></path>
    </g>
    <g clip-path="url(#k)" transform="matrix(.3828 0 0 .3828 297.458 57.97)">
        <clipPath id="k">
            <rect width="1376" height="768" x="-688" y="-384" rx="0" ry="0" transform="matrix(1 0 0 1 413.116 -120.244)"></rect>
        </clipPath>
        <path fill="#111111" d="M-47.884-38.244h21c-.563 12.037-1.66 23.955-2.984 35.932-1.86 9.694-1.86 9.694.203 18.721 2.316 1.752 3.668 1.721 6.556 1.72l2.933.018 3.163-.028 3.254.002c2.272-.003 4.545-.012 6.817-.029 3.478-.023 6.956-.02 10.435-.014 2.206-.005 4.413-.012 6.619-.02l3.157.002 2.942-.029 2.584-.014c2.588-.29 4.17-.793 6.32-2.26 1.828-5.51 2.479-11.056 3.036-16.813l.253-2.465c.264-2.574.519-5.148.774-7.723.26-2.575.523-5.149.785-7.723.162-1.594.323-3.188.48-4.782.075-.734.148-1.469.224-2.225l.19-1.919c.38-3.455.828-6.902 1.259-10.35h22c-.57 9.9-1.614 19.681-2.847 29.52-.615 4.91-1.206 9.81-1.618 14.741-1.515 17.843-1.515 17.843-8.406 24.562-12.013 9.103-28.181 7.616-42.405 7.512-3.48-.024-6.96-.02-10.44-.014a3748.71 3748.71 0 0 1-6.706-.02l-3.116.002c-8.46-.083-20.348-.696-27.001-6.69-6.192-7.189-5.968-13.468-5.461-22.614.399-5.115 1.03-10.203 1.666-15.292.38-3.09.74-6.182 1.1-9.274l.796-6.809.384-3.298.37-3.1.327-2.764c.357-2.463.357-2.463 1.357-6.463"></path>
    </g>
    <g clip-path="url(#l)" transform="matrix(.3828 0 0 .3828 615.656 57.858)">
        <clipPath id="l">
            <rect width="1376" height="768" x="-688" y="-384" rx="0" ry="0" transform="matrix(1 0 0 1 -418 -119.95)"></rect>
        </clipPath>
        <path fill="#111111" d="M-58-37.95h25A1519.18 1519.18 0 0 1-15.05-3.219c.79 1.557 1.57 3.113 2.35 4.668a955.99 955.99 0 0 1 3.33 6.636l1.03 2.04C-6 14.821-6 14.821-6 17.05a50.918 50.918 0 0 0 7.29-8.64c.6-.899 1.21-1.796 1.84-2.722.64-.953 1.27-1.906 1.93-2.888l4.05-5.98 2-2.975c1.66-2.454 3.33-4.903 5-7.346.7-1.016.7-1.016 1.41-2.053.9-1.299 1.81-2.59 2.73-3.874 2.17-3.049 4.02-5.97 5.55-9.393 1.79-3.728 3.45-7.11 7.2-9.129 8.21-1.58 16.73-.793 25 0-1.48 3.125-3.22 5.955-5.13 8.832l-1.92 2.885c-.69 1.021-1.37 2.043-2.07 3.096l-2.15 3.216C39.88-9.706 32.86.385 25.81 10.461c-2.66 3.811-5.3 7.635-7.93 11.464-.42.6-.83 1.2-1.26 1.816-.39.574-.78 1.148-1.19 1.74-.4.56-.8 1.121-1.22 1.7-1.29 1.908-1.29 1.908-2.36 4.292-1.4 2.702-2.56 4.56-4.85 6.577-4.67 1.11-9.11.853-13.88.563l-3.82-.124c-3.1-.105-6.2-.253-9.3-.439-10.17-19.746-20.31-39.51-30.25-59.375-.4-.788-.79-1.575-1.2-2.387-1.11-2.21-2.21-4.423-3.32-6.636l-1-1.996C-58-36.834-58-36.834-58-37.95"></path>
    </g>
    <g clip-path="url(#m)" transform="matrix(.3828 0 0 .3828 405.868 57.686)">
        <clipPath id="m">
            <rect width="1376" height="768" x="-688" y="-384" rx="0" ry="0" transform="matrix(1 0 0 1 129.955 -119.5)"></rect>
        </clipPath>
        <path fill="#F8F8F6" d="m-19.124-19.661 3.106-.029 3.368-.013 3.453-.017c2.415-.01 4.83-.016 7.245-.02 3.694-.01 7.387-.041 11.08-.072 2.345-.007 4.69-.012 7.034-.016l3.35-.038 3.134.01 2.747-.011c3.126.448 5.023 1.518 7.562 3.367.978 3.555.298 7.352 0 11L32.8-3.208c-.174 2.53-.38 5.056-.596 7.583l-.186 2.486c-.497 5.014-1.31 7.986-5.064 11.639-2.525 1.263-4.294 1.141-7.121 1.161l-3.236.029-3.51.013-3.595.017c-2.513.01-5.027.016-7.54.02-3.85.01-7.7.041-11.55.072-2.438.007-4.876.012-7.315.016l-3.498.038-3.256-.01-2.861.011c-2.988-.436-4.361-1.281-6.518-3.367-.78-4.294-.283-8.659 0-13l.133-2.19c.152-2.274.346-4.541.555-6.81l.16-2.174c.565-5.189 2.136-7.568 6.152-10.826 2.477-1.238 4.15-1.14 6.92-1.161"></path>
    </g>
    <g clip-path="url(#n)" transform="matrix(.3828 0 0 .3828 250.412 62.49)">
        <clipPath id="n">
            <rect width="1376" height="768" x="-688" y="-384" rx="0" ry="0" transform="matrix(1 0 0 1 536 -132.05)"></rect>
        </clipPath>
        <path fill="#111111" d="M-41-26.05c5.398 1.661 5.398 1.661 7.732 2.976 7.554 4.12 15.546 3.629 23.897 3.633 1.601.015 3.203.032 4.804.05 4.187.044 8.374.064 12.561.079 4.284.02 8.568.062 12.852.102 8.384.075 16.769.123 25.154.16l-1 16h-67l-1 16c-.854 11.854-.854 11.854-2 13a76.443 76.443 0 0 1-4.691.098l-2.862-.01-3.009-.026-3.022-.013c-2.472-.012-4.944-.028-7.416-.049.564-11.732 1.605-23.339 3-35l.574-4.914c.471-4.029.947-8.058 1.426-12.086"></path>
    </g>
    <g clip-path="url(#o)" transform="matrix(.3828 0 0 .3828 252.9 46.846)">
        <clipPath id="o">
            <rect width="1376" height="768" x="-688" y="-384" rx="0" ry="0" transform="matrix(1 0 0 1 529.5 -91.186)"></rect>
        </clipPath>
        <path fill="#111111" d="M-50.5-9.187h101l-2 18c-10.179.068-20.359.123-30.538.155-4.727.016-9.454.037-14.181.071-4.565.033-9.13.051-13.694.06-1.739.004-3.478.015-5.216.031-2.442.022-4.883.025-7.324.024l-2.163.032c-6.865-.042-12.141-2.2-17.329-6.77C-50.5-6.399-50.5-6.399-50.5-9.188"></path>
    </g>
    <g clip-path="url(#p)" transform="matrix(.3828 0 0 .3828 582.538 57.896)">
        <clipPath id="p">
            <rect width="1376" height="768" x="-688" y="-384" rx="0" ry="0" transform="matrix(1 0 0 1 -331.5 -120.05)"></rect>
        </clipPath>
        <path fill="#111111" d="M-7.5-38.05h22c-.41 7.748-.84 15.38-1.94 23.062-.9 6.343-1.52 12.68-2.06 19.063-.08.968-.16 1.937-.25 2.934-.16 1.979-.33 3.957-.5 5.935-.42 4.962-.86 9.922-1.31 14.881-.12 1.356-.12 1.356-.24 2.739-.58 6.271-.58 6.271-1.7 7.386-1.56.087-3.13.107-4.69.098l-2.58-.008-3.29-.028-5.59-.033-4.85-.029c.52-16.708 2.18-33.209 4.06-49.812.29-2.554.57-5.109.86-7.663.68-6.176 1.38-12.35 2.08-18.525"></path>
    </g>
    <g clip-path="url(#q)" transform="matrix(.3828 0 0 .3828 373.5 57.877)">
        <clipPath id="q">
            <rect width="1376" height="768" x="-688" y="-384" rx="0" ry="0" transform="matrix(1 0 0 1 214.5 -120)"></rect>
        </clipPath>
        <path fill="#111111" d="M-7.5-38h22c-.929 17.095-2.691 34.179-5.125 51.125C8.209 21.394 7.888 29.662 7.5 38h-22c0-10.125 0-10.125.535-15.311l.354-3.499.388-3.694.397-3.872c.345-3.376.697-6.751 1.049-10.126.285-2.743.567-5.486.848-8.229a9788.4 9788.4 0 0 1 1.765-17.088l.316-3.04c.412-3.718.884-7.429 1.348-11.141"></path>
    </g>
</svg></svg>